<svg width="64" height="64" viewBox="0 0 64 64" fill="none" xmlns="http://www.w3.org/2000/svg">
<rect width="64" height="64" rx="32" fill="white"/>
<g filter="url(#filter0_d_2_4)">
<path d="M12.768 44.84V44H17.232V44.84H12.768Z" fill="black"/>
<path d="M18.768 44.84V44H23.232V44.84H18.768Z" fill="black"/>
<path d="M31.904 44.256C31.3493 44.256 30.784 44.2027 30.208 44.096C29.6533 43.9893 29.1307 43.7973 28.64 43.52C28.1493 43.2427 27.712 42.8907 27.328 42.464C26.944 42.0373 26.6347 41.568 26.4 41.056C26.1653 40.544 26.0053 40.0107 25.92 39.456C25.8347 38.88 25.792 38.3147 25.792 37.76V26.72C25.792 26.1653 25.8347 25.6107 25.92 25.056C26.0053 24.48 26.1653 23.936 26.4 23.424C26.6347 22.912 26.944 22.4427 27.328 22.016C27.712 21.5893 28.1493 21.2373 28.64 20.96C29.1307 20.6827 29.6533 20.4907 30.208 20.384C30.784 20.2773 31.3493 20.224 31.904 20.224C32.4373 20.224 32.96 20.2667 33.472 20.352C34.0053 20.4373 34.5067 20.5973 34.976 20.832C35.4667 21.0667 35.904 21.3653 36.288 21.728C36.6933 22.0907 37.0133 22.5067 37.248 22.976C37.504 23.4453 37.696 23.936 37.824 24.448C37.952 24.96 38.016 25.4827 38.016 26.016C38.016 26.0373 38.016 26.0587 38.016 26.08C38.016 26.08 38.016 26.0907 38.016 26.112H35.52C35.52 26.0907 35.52 26.0693 35.52 26.048C35.52 25.5787 35.4347 25.1093 35.264 24.64C35.1147 24.1707 34.8693 23.7653 34.528 23.424C34.208 23.0827 33.8133 22.8373 33.344 22.688C32.8747 22.5387 32.3947 22.464 31.904 22.464C31.3707 22.464 30.848 22.5707 30.336 22.784C29.8453 22.976 29.44 23.2853 29.12 23.712C28.8 24.1387 28.576 24.6187 28.448 25.152C28.3413 25.664 28.288 26.1867 28.288 26.72V31.104H33.792V33.376H28.288V37.76C28.288 38.2933 28.3413 38.8267 28.448 39.36C28.576 39.872 28.8 40.3413 29.12 40.768C29.44 41.1947 29.8453 41.5147 30.336 41.728C30.848 41.92 31.3707 42.016 31.904 42.016C32.3947 42.016 32.8747 41.9413 33.344 41.792C33.8133 41.6427 34.208 41.3973 34.528 41.056C34.8693 40.7147 35.1147 40.3093 35.264 39.84C35.4347 39.3707 35.52 38.9013 35.52 38.432C35.52 38.4107 35.52 38.4 35.52 38.4C35.52 38.3787 35.52 38.368 35.52 38.368H38.016C38.016 38.3893 38.016 38.4107 38.016 38.432C38.016 38.432 38.016 38.4427 38.016 38.464C38.016 38.9973 37.952 39.52 37.824 40.032C37.696 40.544 37.504 41.0347 37.248 41.504C37.0133 41.9733 36.6933 42.3893 36.288 42.752C35.904 43.1147 35.4667 43.4133 34.976 43.648C34.5067 43.8827 34.0053 44.0427 33.472 44.128C32.96 44.2133 32.4373 44.256 31.904 44.256Z" fill="url(#paint0_linear_2_4)"/>
<path d="M40.768 44.84V44H45.232V44.84H40.768Z" fill="black"/>
<path d="M46.768 44.84V44H51.232V44.84H46.768Z" fill="black"/>
</g>
<defs>
<filter id="filter0_d_2_4" x="5.768" y="17.224" width="52.464" height="38.616" filterUnits="userSpaceOnUse" color-interpolation-filters="sRGB">
<feFlood flood-opacity="0" result="BackgroundImageFix"/>
<feColorMatrix in="SourceAlpha" type="matrix" values="0 0 0 0 0 0 0 0 0 0 0 0 0 0 0 0 0 0 127 0" result="hardAlpha"/>
<feOffset dy="4"/>
<feGaussianBlur stdDeviation="3.5"/>
<feComposite in2="hardAlpha" operator="out"/>
<feColorMatrix type="matrix" values="0 0 0 0 0 0 0 0 0 0 0 0 0 0 0 0 0 0 0.32 0"/>
<feBlend mode="normal" in2="BackgroundImageFix" result="effect1_dropShadow_2_4"/>
<feBlend mode="normal" in="SourceGraphic" in2="effect1_dropShadow_2_4" result="shape"/>
</filter>
<linearGradient id="paint0_linear_2_4" x1="32" y1="20.224" x2="32" y2="44.84" gradientUnits="userSpaceOnUse">
<stop stop-color="#92882F"/>
<stop offset="1"/>
</linearGradient>
</defs>
</svg>
